<svg width="870" height="236" viewBox="0 0 870 236" fill="none" xmlns="http://www.w3.org/2000/svg">
<path d="M823.468 112.341L870 236C856.284 234.031 842.576 231.569 828.61 229.357L802.398 161.02L775.459 223.709C762.235 221.497 749.247 220.752 736.023 219.034L783.298 110.866L740.431 0H780.117L804.117 61.9438L829.837 0H870L823.468 112.341ZM709.084 0H673.079V214.366C684.833 215.104 697.08 215.59 709.084 217.065V0ZM641.967 211.904C609.151 209.692 576.327 207.73 542.776 206.986V0H579.508V172.08C600.577 172.574 621.64 174.292 641.967 175.273V211.904ZM503.583 83.828V120.702H453.377V204.53H417.122V0H519.994V36.8743H453.377V83.828H503.583ZM355.398 36.8743V206.499C343.151 206.499 330.662 206.499 318.658 206.986V36.8743H280.692V0H393.607V36.8743H355.398ZM241.014 122.664C224.852 122.664 205.744 122.664 192.028 123.408V178.23C213.583 176.747 235.137 175.029 256.934 174.292V209.692L155.289 217.81V0H256.934V36.8743H192.028V86.5267C206.236 86.5267 228.033 85.7894 241.014 85.7894V122.664ZM37.4741 102.018V230.831C24.2505 232.313 12.4889 234.031 0 236V0H35.0277L82.7868 133.982V0H119.526V220.752C106.545 222.971 93.3216 223.709 79.3561 225.67L37.4741 102.018Z" fill="#E50914"/>
</svg>
